# xmcd CD database file
# Copyright (C) 1993-1998 Ti Kan
# 
# Track frame offsets:
#     150
#     13482
#     27012
#     35762
#     44917
#     60105
#     80007
#     93940
#     106395
#     124575
#     139902
#     154565
#     164535
#     177535
#     189797
#     203797
#     216247
#     229705
#     239012
#     249522
#     262780
#     277547
#     291710
#     322235
#     342652
# 
# Disc length: 4750 seconds
# 
# Revision: 1
# Processed by: cddbd v1.4b41PL1 Copyright (c) Steve Scherf et al.
# Submitted via: DiscPlay 4.0.4
# 
DISCID=75128c19
DTITLE=Lee Albert - Undiscovered
DYEAR=1900
DGENRE=
TTITLE0=Undiscovered
TTITLE1=Long Gone
TTITLE2=Too Much Of Nothing
TTITLE3=Mama Tried - version 1
TTITLE4=Rocky Top Tennessee
TTITLE5=Country In Harlem
TTITLE6=Lay Lady Lay
TTITLE7=Memphis Streets
TTITLE8=Tears Of Rage
TTITLE9=The Victim
TTITLE10=Tonight I'll Be Staying Here With You
TTITLE11=Mama Come Get Your Baby Boy
TTITLE12=That's All Right Mama
TTITLE13=Best I Can
TTITLE14=The Fool - version 1
TTITLE15=Send Me Back To The Mines
TTITLE16=Six Days On The Road
TTITLE17=Walkin' Shoes
TTITLE18=Mama Tried - version 2
TTITLE19=The Fool - version 2
TTITLE20=St Louis
TTITLE21=Look Out Cleveland
TTITLE22=Bullfrog
TTITLE23=All About You
TTITLE24=Freedom For The Stallion
EXTD=
EXTT0=
EXTT1=
EXTT2=
EXTT3=
EXTT4=
EXTT5=
EXTT6=
EXTT7=
EXTT8=
EXTT9=
EXTT10=
EXTT11=
EXTT12=
EXTT13=
EXTT14=
EXTT15=
EXTT16=
EXTT17=
EXTT18=
EXTT19=
EXTT20=
EXTT21=
EXTT22=
EXTT23=
EXTT24=
PLAYORDER=
